<svg width="10" height="10" viewBox="0 0 10 10" fill="none" xmlns="http://www.w3.org/2000/svg">
<path d="M7.91564 8.33333C4.3608 8.33837 1.66289 5.60813 1.66669 2.08438C1.66669 1.85427 1.85324 1.66667 2.08336 1.66667H3.18309C3.38958 1.66667 3.56499 1.81839 3.59531 2.02264C3.66798 2.51217 3.81051 2.98874 4.01856 3.4378L4.06137 3.53022C4.12091 3.65872 4.08055 3.8114 3.9653 3.8937C3.62473 4.13692 3.49457 4.62649 3.75989 5.00849C4.09284 5.48785 4.51254 5.90746 4.9918 6.24026C5.37378 6.50551 5.86327 6.37537 6.10648 6.03486C6.18884 5.91955 6.34161 5.87917 6.47019 5.93873L6.56218 5.98135C7.01126 6.18938 7.48787 6.33191 7.97745 6.40457C8.18171 6.43488 8.33335 6.61029 8.33335 6.81678V7.91666C8.33335 8.14678 8.14635 8.33333 7.91623 8.33333L7.91564 8.33333Z" fill="#79819A"/>
</svg>
